<svg width="120" height="120" viewBox="0 0 120 120" xmlns="http://www.w3.org/2000/svg">
  <defs>
    <linearGradient id="bgGradient" x1="0%" y1="0%" x2="100%" y2="100%">
      <stop offset="0%" style="stop-color:#b794f6;stop-opacity:1" />
      <stop offset="100%" style="stop-color:#9f7aea;stop-opacity:1" />
    </linearGradient>
    <linearGradient id="bodyGradient" x1="0%" y1="0%" x2="100%" y2="100%">
      <stop offset="0%" style="stop-color:#ffffff;stop-opacity:1" />
      <stop offset="100%" style="stop-color:#e2e8f0;stop-opacity:1" />
    </linearGradient>
    <linearGradient id="blueGradient" x1="0%" y1="0%" x2="100%" y2="100%">
      <stop offset="0%" style="stop-color:#4299e1;stop-opacity:1" />
      <stop offset="100%" style="stop-color:#3182ce;stop-opacity:1" />
    </linearGradient>
    <linearGradient id="pinkGradient" x1="0%" y1="0%" x2="100%" y2="100%">
      <stop offset="0%" style="stop-color:#f687b3;stop-opacity:1" />
      <stop offset="100%" style="stop-color:#ed64a6;stop-opacity:1" />
    </linearGradient>
  </defs>
  
  <!-- Background rounded rectangle -->
  <rect width="120" height="120" rx="24" ry="24" fill="url(#bgGradient)"/>
  
  <!-- Character body (main white block) -->
  <g transform="translate(30, 20)">
    <!-- Main body -->
    <rect x="10" y="15" width="40" height="55" fill="url(#bodyGradient)" rx="2"/>
    
    <!-- Head/top part -->
    <rect x="15" y="10" width="30" height="20" fill="url(#bodyGradient)" rx="2"/>
    
    <!-- Blue block on top -->
    <rect x="20" y="5" width="20" height="12" fill="url(#blueGradient)" rx="1"/>
    
    <!-- Pink/red blocks on side -->
    <rect x="5" y="25" width="12" height="15" fill="url(#pinkGradient)" rx="1"/>
    <rect x="8" y="30" width="8" height="8" fill="url(#blueGradient)" rx="1"/>
    
    <!-- Right side extension -->
    <rect x="45" y="35" width="15" height="20" fill="url(#bodyGradient)" rx="2"/>
    <rect x="50" y="40" width="8" height="10" fill="#e2e8f0" rx="1"/>
    
    <!-- Eye -->
    <rect x="35" y="25" width="4" height="4" fill="#2d3748" rx="1"/>
    
    <!-- Feet/base -->
    <rect x="15" y="65" width="8" height="8" fill="url(#pinkGradient)" rx="1"/>
    <rect x="25" y="65" width="8" height="8" fill="url(#pinkGradient)" rx="1"/>
    <rect x="35" y="65" width="8" height="8" fill="url(#pinkGradient)" rx="1"/>
    
    <!-- Additional pink blocks for feet detail -->
    <rect x="18" y="68" width="5" height="3" fill="#ed64a6" rx="0.5"/>
    <rect x="28" y="68" width="5" height="3" fill="#ed64a6" rx="0.5"/>
    <rect x="38" y="68" width="5" height="3" fill="#ed64a6" rx="0.5"/>
  </g>
</svg>